<svg width="54" height="54" viewBox="0 0 54 54" fill="none" xmlns="http://www.w3.org/2000/svg">
<path d="M43.3575 11.9925C40.365 10.5975 37.125 9.585 33.75 9C33.7204 8.99905 33.691 9.0046 33.6638 9.01627C33.6366 9.02793 33.6122 9.04542 33.5925 9.0675C33.1875 9.81 32.715 10.7775 32.4 11.52C28.8203 10.98 25.1798 10.98 21.6 11.52C21.285 10.755 20.8125 9.81 20.385 9.0675C20.3625 9.0225 20.295 9 20.2275 9C16.8525 9.585 13.635 10.5975 10.62 11.9925C10.5975 11.9925 10.575 12.015 10.5525 12.0375C4.43252 21.195 2.74502 30.105 3.57752 38.925C3.57752 38.97 3.60002 39.015 3.64502 39.0375C7.69502 42.0075 11.5875 43.8075 15.435 45C15.5025 45.0225 15.57 45 15.5925 44.955C16.4925 43.7175 17.3025 42.4125 18 41.04C18.045 40.95 18 40.86 17.91 40.8375C16.6275 40.3425 15.4125 39.7575 14.22 39.0825C14.13 39.0375 14.13 38.9025 14.1975 38.835C14.445 38.655 14.6925 38.4525 14.94 38.2725C14.985 38.2275 15.0525 38.2275 15.0975 38.25C22.8375 41.7825 31.185 41.7825 38.835 38.25C38.88 38.2275 38.9475 38.2275 38.9925 38.2725C39.24 38.475 39.4875 38.655 39.735 38.8575C39.825 38.925 39.825 39.06 39.7125 39.105C38.5425 39.8025 37.305 40.365 36.0225 40.86C35.9325 40.8825 35.91 40.995 35.9325 41.0625C36.6525 42.435 37.4625 43.74 38.34 44.9775C38.4075 45 38.475 45.0225 38.5425 45C42.4125 43.8075 46.305 42.0075 50.355 39.0375C50.4 39.015 50.4225 38.97 50.4225 38.925C51.4125 28.7325 48.78 19.89 43.4475 12.0375C43.425 12.015 43.4025 11.9925 43.3575 11.9925ZM19.17 33.5475C16.8525 33.5475 14.9175 31.41 14.9175 28.7775C14.9175 26.145 16.8075 24.0075 19.17 24.0075C21.555 24.0075 23.445 26.1675 23.4225 28.7775C23.4225 31.41 21.5325 33.5475 19.17 33.5475ZM34.8525 33.5475C32.535 33.5475 30.6 31.41 30.6 28.7775C30.6 26.145 32.49 24.0075 34.8525 24.0075C37.2375 24.0075 39.1275 26.1675 39.105 28.7775C39.105 31.41 37.2375 33.5475 34.8525 33.5475Z" fill="#565454"/>
</svg>
