<svg width="51" height="45" viewBox="0 0 51 45" fill="none" xmlns="http://www.w3.org/2000/svg">
<path d="M47.8125 22.5C47.8125 27.7031 46.8563 31.9219 45.5812 31.9219C44.3063 31.9219 43.35 27.7031 43.35 22.5C43.35 17.2969 44.3063 13.0781 45.5812 13.0781C46.8563 13.0781 47.8125 17.2969 47.8125 22.5ZM42.2344 22.5C42.2344 28.2656 39.3656 33.0469 36.0187 33.0469C32.6719 33.0469 29.8031 28.2656 29.8031 22.5C29.8031 16.7344 32.6719 11.9531 36.0187 11.9531C39.3656 11.9531 42.2344 16.7344 42.2344 22.5ZM28.3687 22.5C28.3687 28.6875 22.7906 33.75 15.7781 33.75C8.76562 33.75 3.1875 28.6875 3.1875 22.5C3.1875 16.3125 8.76562 11.25 15.7781 11.25C22.7906 11.25 28.3687 16.3125 28.3687 22.5Z" fill="#565454"/>
</svg>
