<svg width="44" height="41" viewBox="0 0 44 41" fill="none" xmlns="http://www.w3.org/2000/svg">
<path d="M41.1766 10.25C39.765 10.8479 38.2433 11.2408 36.6666 11.4287C38.28 10.5233 39.5266 9.08833 40.1133 7.36291C38.5916 8.21708 36.905 8.815 35.1266 9.15666C33.6783 7.6875 31.6433 6.83333 29.3333 6.83333C25.025 6.83333 21.505 10.1133 21.505 14.1621C21.505 14.7429 21.5783 15.3067 21.7066 15.8362C15.18 15.5287 9.3683 12.6075 5.49997 8.18291C4.82164 9.25916 4.43664 10.5233 4.43664 11.8558C4.43664 14.4012 5.81164 16.6562 7.9383 17.9375C6.63664 17.9375 5.42664 17.5958 4.3633 17.0833V17.1346C4.3633 20.6879 7.07664 23.6604 10.67 24.3267C9.5163 24.6208 8.30514 24.6618 7.13164 24.4462C7.62958 25.9026 8.60479 27.1769 9.92017 28.09C11.2355 29.0031 12.825 29.5092 14.465 29.5371C11.685 31.5878 8.23896 32.6963 4.6933 32.6804C4.06997 32.6804 3.44664 32.6462 2.8233 32.5779C6.30664 34.6621 10.45 35.875 14.8866 35.875C29.3333 35.875 37.2716 24.7025 37.2716 15.0162C37.2716 14.6917 37.2716 14.3842 37.2533 14.0596C38.7933 13.0346 40.1133 11.7362 41.1766 10.25Z" fill="#565454"/>
</svg>
