<svg width="30" height="29" viewBox="0 0 30 29" fill="none" xmlns="http://www.w3.org/2000/svg">
<path d="M9.375 8.15625H13.125M9.375 14.5H20.625M9.375 18.125H20.625M9.375 21.75H13.125M7.5 26.2812H22.5C22.9973 26.2812 23.4742 26.0903 23.8258 25.7504C24.1775 25.4105 24.375 24.9495 24.375 24.4688V4.53125C24.375 4.05055 24.1775 3.58953 23.8258 3.24962C23.4742 2.90971 22.9973 2.71875 22.5 2.71875H7.5C7.00272 2.71875 6.52581 2.90971 6.17417 3.24962C5.82254 3.58953 5.625 4.05055 5.625 4.53125V24.4688C5.625 24.9495 5.82254 25.4105 6.17417 25.7504C6.52581 26.0903 7.00272 26.2812 7.5 26.2812Z" stroke="#565454" stroke-width="2" stroke-linecap="round" stroke-linejoin="round"/>
<path d="M20.625 8.60938C20.8839 8.60938 21.0938 8.4065 21.0938 8.15625C21.0938 7.906 20.8839 7.70312 20.625 7.70312C20.3661 7.70312 20.1562 7.906 20.1562 8.15625C20.1562 8.4065 20.3661 8.60938 20.625 8.60938Z" fill="#565454" stroke="#565454"/>
</svg>
