<svg width="557" height="40" viewBox="0 0 557 40" fill="none" xmlns="http://www.w3.org/2000/svg">
<rect width="557" height="40" rx="8" fill="#79CE96"/>
<rect x="90" width="179" height="40" rx="8" fill="#79BFCE"/>
<rect x="254" width="303" height="40" rx="8" fill="#565454"/>
<path d="M35.312 15.042L31.99 17.44V15.306L35.62 12.622H37.556V28H35.312V15.042ZM39.9822 26.526L43.3042 23.336C43.5975 23.0427 44.0082 22.6613 44.5362 22.192C45.3722 21.4293 46.0102 20.8133 46.4502 20.344C46.8902 19.8747 47.2495 19.376 47.5282 18.848C47.8069 18.3053 47.9462 17.726 47.9462 17.11C47.9462 16.2007 47.6822 15.5113 47.1542 15.042C46.6262 14.558 45.8562 14.316 44.8442 14.316C44.1549 14.316 43.4435 14.4407 42.7102 14.69C41.9915 14.9393 41.3169 15.306 40.6862 15.79V13.634C41.9182 12.7393 43.4215 12.292 45.1962 12.292C46.7802 12.292 48.0122 12.7173 48.8922 13.568C49.7722 14.404 50.2122 15.548 50.2122 17C50.2122 17.704 50.0582 18.3787 49.7502 19.024C49.4569 19.6693 49.0389 20.3073 48.4962 20.938C47.9535 21.554 47.2202 22.3093 46.2962 23.204L43.3042 26.13H50.7842V28H39.9822V26.526ZM56.8574 20.366C56.1241 20.366 55.4494 20.19 54.8334 19.838C54.2174 19.4713 53.7261 18.98 53.3594 18.364C53.0074 17.748 52.8314 17.0733 52.8314 16.34C52.8314 15.6067 53.0074 14.932 53.3594 14.316C53.7261 13.6853 54.2174 13.194 54.8334 12.842C55.4494 12.4753 56.1241 12.292 56.8574 12.292C57.5907 12.292 58.2654 12.4753 58.8814 12.842C59.5121 13.194 60.0034 13.6853 60.3554 14.316C60.7221 14.932 60.9054 15.6067 60.9054 16.34C60.9054 17.0733 60.7221 17.748 60.3554 18.364C60.0034 18.98 59.5121 19.4713 58.8814 19.838C58.2654 20.19 57.5907 20.366 56.8574 20.366ZM64.7114 12.622H66.8894L58.3754 28H56.1974L64.7114 12.622ZM56.8574 18.738C57.5321 18.738 58.0894 18.5107 58.5294 18.056C58.9841 17.6013 59.2114 17.044 59.2114 16.384C59.2114 15.7093 58.9841 15.1447 58.5294 14.69C58.0894 14.2353 57.5321 14.008 56.8574 14.008C56.1827 14.008 55.6181 14.2353 55.1634 14.69C54.7234 15.1447 54.5034 15.7093 54.5034 16.384C54.5034 17.044 54.7234 17.6013 55.1634 18.056C55.6181 18.5107 56.1827 18.738 56.8574 18.738ZM66.2074 28.33C65.4741 28.33 64.7994 28.154 64.1834 27.802C63.5674 27.4353 63.0761 26.944 62.7094 26.328C62.3574 25.712 62.1814 25.0373 62.1814 24.304C62.1814 23.5707 62.3574 22.896 62.7094 22.28C63.0761 21.6493 63.5674 21.158 64.1834 20.806C64.7994 20.4393 65.4741 20.256 66.2074 20.256C66.9407 20.256 67.6154 20.4393 68.2314 20.806C68.8621 21.158 69.3534 21.6493 69.7054 22.28C70.0721 22.896 70.2554 23.5707 70.2554 24.304C70.2554 25.0373 70.0721 25.712 69.7054 26.328C69.3534 26.944 68.8621 27.4353 68.2314 27.802C67.6154 28.154 66.9407 28.33 66.2074 28.33ZM66.1854 26.702C66.8601 26.702 67.4247 26.4747 67.8794 26.02C68.3341 25.5653 68.5614 25.008 68.5614 24.348C68.5614 23.6733 68.3341 23.1087 67.8794 22.654C67.4247 22.1993 66.8601 21.972 66.1854 21.972C65.5254 21.972 64.9681 22.1993 64.5134 22.654C64.0587 23.1087 63.8314 23.6733 63.8314 24.348C63.8314 25.008 64.0587 25.5653 64.5134 26.02C64.9681 26.4747 65.5254 26.702 66.1854 26.702Z" fill="#505050"/>
<path d="M156.99 26.526L160.312 23.336C160.605 23.0427 161.016 22.6613 161.544 22.192C162.38 21.4293 163.018 20.8133 163.458 20.344C163.898 19.8747 164.257 19.376 164.536 18.848C164.815 18.3053 164.954 17.726 164.954 17.11C164.954 16.2007 164.69 15.5113 164.162 15.042C163.634 14.558 162.864 14.316 161.852 14.316C161.163 14.316 160.451 14.4407 159.718 14.69C158.999 14.9393 158.325 15.306 157.694 15.79V13.634C158.926 12.7393 160.429 12.292 162.204 12.292C163.788 12.292 165.02 12.7173 165.9 13.568C166.78 14.404 167.22 15.548 167.22 17C167.22 17.704 167.066 18.3787 166.758 19.024C166.465 19.6693 166.047 20.3073 165.504 20.938C164.961 21.554 164.228 22.3093 163.304 23.204L160.312 26.13H167.792V28H156.99V26.526ZM176.175 28.33C174.855 28.33 173.711 28.0073 172.743 27.362C171.79 26.7167 171.057 25.7927 170.543 24.59C170.03 23.3873 169.773 21.9647 169.773 20.322C169.773 18.6793 170.023 17.2567 170.521 16.054C171.035 14.8367 171.768 13.9053 172.721 13.26C173.689 12.6147 174.841 12.292 176.175 12.292C177.51 12.292 178.654 12.6147 179.607 13.26C180.575 13.9053 181.309 14.8367 181.807 16.054C182.321 17.2567 182.577 18.6793 182.577 20.322C182.577 21.9647 182.321 23.3873 181.807 24.59C181.294 25.7927 180.553 26.7167 179.585 27.362C178.632 28.0073 177.495 28.33 176.175 28.33ZM176.175 26.35C177.481 26.35 178.5 25.8147 179.233 24.744C179.981 23.6587 180.355 22.192 180.355 20.344C180.355 18.496 179.989 17.0293 179.255 15.944C178.522 14.8587 177.495 14.316 176.175 14.316C174.855 14.316 173.829 14.8587 173.095 15.944C172.362 17.0293 171.995 18.496 171.995 20.344C171.995 22.192 172.362 23.6587 173.095 24.744C173.843 25.8147 174.87 26.35 176.175 26.35ZM188.646 20.366C187.913 20.366 187.238 20.19 186.622 19.838C186.006 19.4713 185.515 18.98 185.148 18.364C184.796 17.748 184.62 17.0733 184.62 16.34C184.62 15.6067 184.796 14.932 185.148 14.316C185.515 13.6853 186.006 13.194 186.622 12.842C187.238 12.4753 187.913 12.292 188.646 12.292C189.38 12.292 190.054 12.4753 190.67 12.842C191.301 13.194 191.792 13.6853 192.144 14.316C192.511 14.932 192.694 15.6067 192.694 16.34C192.694 17.0733 192.511 17.748 192.144 18.364C191.792 18.98 191.301 19.4713 190.67 19.838C190.054 20.19 189.38 20.366 188.646 20.366ZM196.5 12.622H198.678L190.164 28H187.986L196.5 12.622ZM188.646 18.738C189.321 18.738 189.878 18.5107 190.318 18.056C190.773 17.6013 191 17.044 191 16.384C191 15.7093 190.773 15.1447 190.318 14.69C189.878 14.2353 189.321 14.008 188.646 14.008C187.972 14.008 187.407 14.2353 186.952 14.69C186.512 15.1447 186.292 15.7093 186.292 16.384C186.292 17.044 186.512 17.6013 186.952 18.056C187.407 18.5107 187.972 18.738 188.646 18.738ZM197.996 28.33C197.263 28.33 196.588 28.154 195.972 27.802C195.356 27.4353 194.865 26.944 194.498 26.328C194.146 25.712 193.97 25.0373 193.97 24.304C193.97 23.5707 194.146 22.896 194.498 22.28C194.865 21.6493 195.356 21.158 195.972 20.806C196.588 20.4393 197.263 20.256 197.996 20.256C198.73 20.256 199.404 20.4393 200.02 20.806C200.651 21.158 201.142 21.6493 201.494 22.28C201.861 22.896 202.044 23.5707 202.044 24.304C202.044 25.0373 201.861 25.712 201.494 26.328C201.142 26.944 200.651 27.4353 200.02 27.802C199.404 28.154 198.73 28.33 197.996 28.33ZM197.974 26.702C198.649 26.702 199.214 26.4747 199.668 26.02C200.123 25.5653 200.35 25.008 200.35 24.348C200.35 23.6733 200.123 23.1087 199.668 22.654C199.214 22.1993 198.649 21.972 197.974 21.972C197.314 21.972 196.757 22.1993 196.302 22.654C195.848 23.1087 195.62 23.6733 195.62 24.348C195.62 25.008 195.848 25.5653 196.302 26.02C196.757 26.4747 197.314 26.702 197.974 26.702Z" fill="#505050"/>
<path d="M399.776 28.33C398.676 28.33 397.686 28.0807 396.806 27.582C395.941 27.0687 395.251 26.3207 394.738 25.338C394.239 24.3407 393.99 23.1453 393.99 21.752C393.99 18.7013 394.613 16.362 395.86 14.734C397.121 13.106 398.925 12.292 401.272 12.292C402.079 12.292 402.797 12.38 403.428 12.556V14.448C402.915 14.228 402.255 14.118 401.448 14.118C398.309 14.118 396.586 16.0027 396.278 19.772C396.718 19.2147 397.297 18.7967 398.016 18.518C398.749 18.2247 399.549 18.078 400.414 18.078C401.411 18.078 402.284 18.2833 403.032 18.694C403.78 19.1047 404.359 19.6913 404.77 20.454C405.195 21.2167 405.408 22.104 405.408 23.116C405.408 24.1133 405.181 25.008 404.726 25.8C404.286 26.592 403.641 27.2153 402.79 27.67C401.939 28.11 400.935 28.33 399.776 28.33ZM399.776 26.592C400.803 26.592 401.624 26.284 402.24 25.668C402.871 25.0373 403.186 24.2087 403.186 23.182C403.186 22.1553 402.871 21.3413 402.24 20.74C401.624 20.1387 400.803 19.838 399.776 19.838C399.145 19.838 398.566 19.9773 398.038 20.256C397.525 20.5347 397.114 20.9307 396.806 21.444C396.513 21.9573 396.366 22.5513 396.366 23.226C396.366 23.8273 396.505 24.3847 396.784 24.898C397.077 25.4113 397.481 25.822 397.994 26.13C398.507 26.438 399.101 26.592 399.776 26.592ZM413.028 28.33C411.298 28.33 409.926 27.9413 408.914 27.164C407.902 26.372 407.396 25.25 407.396 23.798C407.396 22.8153 407.653 21.994 408.166 21.334C408.68 20.6593 409.362 20.2047 410.212 19.97C409.508 19.6767 408.951 19.2293 408.54 18.628C408.13 18.012 407.924 17.3007 407.924 16.494C407.924 15.2033 408.386 14.184 409.31 13.436C410.234 12.6733 411.474 12.292 413.028 12.292C414.568 12.292 415.8 12.6733 416.724 13.436C417.648 14.184 418.11 15.2033 418.11 16.494C418.11 17.3007 417.905 18.012 417.494 18.628C417.084 19.2293 416.526 19.6767 415.822 19.97C416.673 20.2047 417.355 20.6593 417.868 21.334C418.396 21.994 418.66 22.8153 418.66 23.798C418.66 25.25 418.154 26.372 417.142 27.164C416.13 27.9413 414.759 28.33 413.028 28.33ZM413.028 19.288C413.894 19.288 414.598 19.0533 415.14 18.584C415.683 18.1 415.954 17.4693 415.954 16.692C415.954 15.9 415.683 15.2547 415.14 14.756C414.612 14.2573 413.908 14.008 413.028 14.008C412.148 14.008 411.437 14.2573 410.894 14.756C410.366 15.2547 410.102 15.9 410.102 16.692C410.102 17.4693 410.374 18.1 410.916 18.584C411.459 19.0533 412.163 19.288 413.028 19.288ZM413.028 26.702C414.084 26.702 414.913 26.4307 415.514 25.888C416.116 25.3453 416.416 24.5973 416.416 23.644C416.416 22.7347 416.101 22.016 415.47 21.488C414.854 20.96 414.04 20.696 413.028 20.696C412.016 20.696 411.195 20.96 410.564 21.488C409.934 22.016 409.618 22.7347 409.618 23.644C409.618 24.5973 409.919 25.3453 410.52 25.888C411.136 26.4307 411.972 26.702 413.028 26.702ZM424.723 20.366C423.989 20.366 423.315 20.19 422.699 19.838C422.083 19.4713 421.591 18.98 421.225 18.364C420.873 17.748 420.697 17.0733 420.697 16.34C420.697 15.6067 420.873 14.932 421.225 14.316C421.591 13.6853 422.083 13.194 422.699 12.842C423.315 12.4753 423.989 12.292 424.723 12.292C425.456 12.292 426.131 12.4753 426.747 12.842C427.377 13.194 427.869 13.6853 428.221 14.316C428.587 14.932 428.771 15.6067 428.771 16.34C428.771 17.0733 428.587 17.748 428.221 18.364C427.869 18.98 427.377 19.4713 426.747 19.838C426.131 20.19 425.456 20.366 424.723 20.366ZM432.577 12.622H434.755L426.241 28H424.063L432.577 12.622ZM424.723 18.738C425.397 18.738 425.955 18.5107 426.395 18.056C426.849 17.6013 427.077 17.044 427.077 16.384C427.077 15.7093 426.849 15.1447 426.395 14.69C425.955 14.2353 425.397 14.008 424.723 14.008C424.048 14.008 423.483 14.2353 423.029 14.69C422.589 15.1447 422.369 15.7093 422.369 16.384C422.369 17.044 422.589 17.6013 423.029 18.056C423.483 18.5107 424.048 18.738 424.723 18.738ZM434.073 28.33C433.339 28.33 432.665 28.154 432.049 27.802C431.433 27.4353 430.941 26.944 430.575 26.328C430.223 25.712 430.047 25.0373 430.047 24.304C430.047 23.5707 430.223 22.896 430.575 22.28C430.941 21.6493 431.433 21.158 432.049 20.806C432.665 20.4393 433.339 20.256 434.073 20.256C434.806 20.256 435.481 20.4393 436.097 20.806C436.727 21.158 437.219 21.6493 437.571 22.28C437.937 22.896 438.121 23.5707 438.121 24.304C438.121 25.0373 437.937 25.712 437.571 26.328C437.219 26.944 436.727 27.4353 436.097 27.802C435.481 28.154 434.806 28.33 434.073 28.33ZM434.051 26.702C434.725 26.702 435.29 26.4747 435.745 26.02C436.199 25.5653 436.427 25.008 436.427 24.348C436.427 23.6733 436.199 23.1087 435.745 22.654C435.29 22.1993 434.725 21.972 434.051 21.972C433.391 21.972 432.833 22.1993 432.379 22.654C431.924 23.1087 431.697 23.6733 431.697 24.348C431.697 25.008 431.924 25.5653 432.379 26.02C432.833 26.4747 433.391 26.702 434.051 26.702Z" fill="white"/>
</svg>
