<svg width="33" height="34" viewBox="0 0 33 34" fill="none" xmlns="http://www.w3.org/2000/svg">
<path d="M8.25 26.9166H12.375V18.4166H20.625V26.9166H24.75V14.1666L16.5 7.79165L8.25 14.1666V26.9166ZM8.25 29.75C7.49375 29.75 6.84613 29.4723 6.30713 28.917C5.76813 28.3616 5.49909 27.6949 5.5 26.9166V14.1666C5.5 13.718 5.59763 13.293 5.79288 12.8916C5.98813 12.4903 6.25717 12.1597 6.6 11.9L14.85 5.52498C15.1021 5.33609 15.3656 5.19442 15.6406 5.09998C15.9156 5.00554 16.2021 4.95831 16.5 4.95831C16.7979 4.95831 17.0844 5.00554 17.3594 5.09998C17.6344 5.19442 17.8979 5.33609 18.15 5.52498L26.4 11.9C26.7438 12.1597 27.0133 12.4903 27.2085 12.8916C27.4038 13.293 27.5009 13.718 27.5 14.1666V26.9166C27.5 27.6958 27.2305 28.3631 26.6915 28.9184C26.1525 29.4737 25.5053 29.7509 24.75 29.75H17.875V21.25H15.125V29.75H8.25Z" fill="#565454"/>
</svg>
