<svg width="34" height="34" viewBox="0 0 34 34" fill="none" xmlns="http://www.w3.org/2000/svg">
<path d="M13.2547 24.7695C12.5508 26.8547 10.8773 28.3953 8.42031 29.2187C7.30951 29.5868 6.15031 29.7882 4.98047 29.8164C4.76912 29.8164 4.56643 29.7324 4.41699 29.583C4.26755 29.4336 4.18359 29.2309 4.18359 29.0195C4.21183 27.8497 4.41324 26.6905 4.78125 25.5797C5.60469 23.1226 7.14531 21.4492 9.23047 20.7453C9.32988 20.712 9.43487 20.6987 9.53945 20.706C9.64402 20.7134 9.74612 20.7413 9.83989 20.7882C9.93365 20.8351 10.0172 20.9 10.0859 20.9792C10.1545 21.0585 10.2068 21.1505 10.2398 21.25C10.275 21.3493 10.2898 21.4547 10.2833 21.5598C10.2768 21.665 10.2492 21.7677 10.202 21.8619C10.1549 21.9562 10.0893 22.0399 10.0091 22.1082C9.92886 22.1765 9.8357 22.2279 9.73516 22.2594C6.78672 23.2555 6.02969 26.5625 5.84375 28.1562C7.42422 27.957 10.7578 27.2133 11.7406 24.2648C11.7721 24.1643 11.8235 24.0711 11.8918 23.9909C11.9601 23.9107 12.0438 23.8451 12.138 23.7979C12.2323 23.7508 12.335 23.7232 12.4402 23.7167C12.5453 23.7102 12.6507 23.725 12.75 23.7601C12.8495 23.7932 12.9415 23.8455 13.0208 23.9141C13.1 23.9827 13.1649 24.0663 13.2118 24.1601C13.2587 24.2539 13.2866 24.356 13.294 24.4605C13.3013 24.5651 13.288 24.6701 13.2547 24.7695ZM26.5758 14.5562L25.3141 15.8312V24.0789C25.3098 24.5712 25.1146 25.0426 24.7695 25.3937L20.4664 29.6836C20.2951 29.858 20.0903 29.9962 19.8644 30.0897C19.6385 30.1833 19.3961 30.2304 19.1516 30.2281C18.7215 30.227 18.3051 30.0768 17.9734 29.8031C17.6416 29.5295 17.415 29.1493 17.332 28.7273L16.2695 23.4015L10.5984 17.7305L5.27266 16.668C4.94049 16.604 4.63227 16.4501 4.38166 16.2229C4.13105 15.9957 3.94767 15.704 3.85156 15.3797C3.75254 15.0589 3.74352 14.7171 3.8255 14.3915C3.90747 14.066 4.07728 13.7692 4.3164 13.5336L8.60625 9.23046C8.95739 8.88539 9.4288 8.69016 9.92109 8.68592H18.1688L19.4437 7.42421C23.1492 3.70545 26.9477 3.8117 28.4086 4.03749C28.8008 4.09376 29.1641 4.27558 29.4443 4.55572C29.7244 4.83586 29.9062 5.19923 29.9625 5.59139C30.1883 7.05233 30.2945 10.8508 26.5758 14.5562ZM5.57812 15.1008L10.7312 16.1367L16.575 10.2797H9.92109C9.85103 10.2807 9.7842 10.3093 9.73516 10.3594L5.44531 14.6625C5.41117 14.6966 5.38695 14.7393 5.37525 14.7861C5.36355 14.8329 5.36481 14.882 5.3789 14.9281C5.39153 14.9733 5.41714 15.0137 5.45256 15.0444C5.48798 15.0751 5.53165 15.0947 5.57812 15.1008ZM23.7203 17.425L17.8633 23.2687L18.8992 28.4219C18.9053 28.4683 18.9249 28.512 18.9556 28.5474C18.9863 28.5828 19.0267 28.6085 19.0719 28.6211C19.118 28.6352 19.1671 28.6364 19.2139 28.6247C19.2607 28.613 19.3034 28.5888 19.3375 28.5547L23.6406 24.2648C23.6907 24.2158 23.7193 24.149 23.7203 24.0789V17.425ZM25.4469 13.4273C26.5227 12.3648 28.9398 9.49608 28.3953 5.83046C28.3853 5.77423 28.3583 5.72243 28.3179 5.68206C28.2776 5.64168 28.2258 5.61467 28.1695 5.60467C24.5039 5.06014 21.6352 7.47733 20.5727 8.55311L19.0719 10.0539L12.1125 17L17 21.8875L23.9461 14.9281L25.4469 13.4273Z" fill="#565454"/>
</svg>
