<svg width="35" height="32" viewBox="0 0 35 32" fill="none" xmlns="http://www.w3.org/2000/svg">
<path d="M27.1387 7.0125C25.4844 4.425 23.2285 3 20.7812 3H14.2188C11.7715 3 9.51562 4.425 7.86133 7.0125C6.20703 9.6 5.46875 12.625 5.46875 16C5.46875 19.375 6.31641 22.575 7.86133 24.9875C9.40625 27.4 11.7715 29 14.2188 29H20.7812C23.2285 29 25.4844 27.575 27.1387 24.9875C28.793 22.4 29.5312 19.375 29.5312 16C29.5312 12.625 28.6836 9.425 27.1387 7.0125ZM27.3164 15H22.9414C22.832 12.85 22.3809 10.7875 21.6152 9H25.7988C26.6328 10.675 27.1934 12.75 27.3164 15ZM24.5 7H20.5762C20.1132 6.27909 19.5629 5.60819 18.9355 5H20.7812C22.1484 5 23.4336 5.75 24.5 7ZM7.65625 16C7.65625 10.0375 10.6641 5 14.2188 5C17.7734 5 20.7812 10.0375 20.7812 16C20.7812 21.9625 17.7734 27 14.2188 27C10.6641 27 7.65625 21.9625 7.65625 16ZM20.7812 27H18.9355C19.5629 26.3918 20.1132 25.7209 20.5762 25H24.5C23.4336 26.25 22.1484 27 20.7812 27ZM25.7988 23H21.6152C22.3809 21.2125 22.832 19.15 22.9414 17H27.3164C27.1934 19.25 26.6328 21.325 25.7988 23Z" fill="#565454"/>
</svg>
